<svg width="20" height="20" viewBox="0 0 20 20" fill="none" xmlns="http://www.w3.org/2000/svg">
<path d="M12.5 0.833328H3.33333C2.41666 0.833328 1.66666 1.58333 1.66666 2.49999V13.3333C1.66666 13.7917 2.04166 14.1667 2.5 14.1667C2.95833 14.1667 3.33333 13.7917 3.33333 13.3333V3.33333C3.33333 2.87499 3.70833 2.49999 4.16666 2.49999H12.5C12.9583 2.49999 13.3333 2.12499 13.3333 1.66666C13.3333 1.20833 12.9583 0.833328 12.5 0.833328ZM15.8333 4.16666H6.66666C5.75 4.16666 5 4.91666 5 5.83333V17.5C5 18.4167 5.75 19.1667 6.66666 19.1667H15.8333C16.75 19.1667 17.5 18.4167 17.5 17.5V5.83333C17.5 4.91666 16.75 4.16666 15.8333 4.16666ZM15 17.5H7.5C7.04166 17.5 6.66666 17.125 6.66666 16.6667V6.66666C6.66666 6.20833 7.04166 5.83333 7.5 5.83333H15C15.4583 5.83333 15.8333 6.20833 15.8333 6.66666V16.6667C15.8333 17.125 15.4583 17.5 15 17.5Z" fill="black"/>
</svg>
