<svg width="12" height="16" viewBox="0 0 12 16" fill="none" xmlns="http://www.w3.org/2000/svg">
<path d="M0.999999 13.8333C0.999999 14.75 1.75 15.5 2.66667 15.5H9.33333C10.25 15.5 11 14.75 11 13.8333V5.5C11 4.58333 10.25 3.83333 9.33333 3.83333H2.66667C1.75 3.83333 0.999999 4.58333 0.999999 5.5V13.8333ZM11 1.33333H8.91667L8.325 0.741667C8.175 0.591667 7.95833 0.5 7.74167 0.5H4.25833C4.04167 0.5 3.825 0.591667 3.675 0.741667L3.08333 1.33333H0.999999C0.541666 1.33333 0.166666 1.70833 0.166666 2.16667C0.166666 2.625 0.541666 3 0.999999 3H11C11.4583 3 11.8333 2.625 11.8333 2.16667C11.8333 1.70833 11.4583 1.33333 11 1.33333Z" fill="white"/>
</svg>
