<svg width="11" height="10" viewBox="0 0 11 10" fill="none" xmlns="http://www.w3.org/2000/svg">
<path d="M0.21006 0.197825C0.276477 0.135117 0.355379 0.0853654 0.442245 0.0514192C0.529112 0.0174729 0.622236 0 0.716284 0C0.810332 0 0.903456 0.0174729 0.990323 0.0514192C1.07719 0.0853654 1.15609 0.135117 1.22251 0.197825L5.00632 3.76261L8.79013 0.197825C8.85661 0.135219 8.93553 0.0855565 9.02239 0.0516741C9.10925 0.0177917 9.20234 0.000352551 9.29636 0.000352551C9.39037 0.000352551 9.48347 0.0177917 9.57033 0.0516741C9.65718 0.0855565 9.73611 0.135219 9.80258 0.197825C9.86906 0.260432 9.9218 0.334757 9.95777 0.416556C9.99375 0.498356 10.0123 0.586028 10.0123 0.674567C10.0123 0.763106 9.99375 0.850778 9.95777 0.932578C9.9218 1.01438 9.86906 1.0887 9.80258 1.15131L6.01734 4.71475L9.80258 8.27819C9.86906 8.34079 9.9218 8.41512 9.95777 8.49692C9.99375 8.57872 10.0123 8.66639 10.0123 8.75493C10.0123 8.84347 9.99375 8.93114 9.95777 9.01294C9.9218 9.09474 9.86906 9.16906 9.80258 9.23167C9.73611 9.29428 9.65718 9.34394 9.57033 9.37782C9.48347 9.4117 9.39037 9.42914 9.29636 9.42914C9.20234 9.42914 9.10925 9.4117 9.02239 9.37782C8.93553 9.34394 8.85661 9.29428 8.79013 9.23167L5.00632 5.66688L1.22251 9.23167C1.15603 9.29428 1.07711 9.34394 0.990251 9.37782C0.903393 9.4117 0.810299 9.42914 0.716284 9.42914C0.62227 9.42914 0.529175 9.4117 0.442317 9.37782C0.355459 9.34394 0.276538 9.29428 0.21006 9.23167C0.143581 9.16906 0.0908476 9.09474 0.0548698 9.01294C0.018892 8.93114 0.000374354 8.84347 0.000374354 8.75493C0.000374354 8.66639 0.018892 8.57872 0.0548698 8.49692C0.0908476 8.41512 0.143581 8.34079 0.21006 8.27819L3.9953 4.71475L0.21006 1.15131C0.143474 1.08876 0.0906446 1.01445 0.0545991 0.932645C0.0185535 0.850838 0 0.763138 0 0.674567C0 0.585996 0.0185535 0.498296 0.0545991 0.416489C0.0906446 0.334682 0.143474 0.260375 0.21006 0.197825Z" fill="white"/>
</svg>
