<svg width="20" height="20" viewBox="0 0 20 20" fill="none" xmlns="http://www.w3.org/2000/svg">
<path d="M13.5833 5.91667C13.2583 6.24167 13.2583 6.75833 13.5833 7.08333L15.1667 8.66667H7.5C7.04167 8.66667 6.66667 9.04167 6.66667 9.5C6.66667 9.95833 7.04167 10.3333 7.5 10.3333H15.1667L13.5833 11.9167C13.2583 12.2417 13.2583 12.7583 13.5833 13.0833C13.9083 13.4083 14.425 13.4083 14.75 13.0833L17.7417 10.0917C18.0667 9.76667 18.0667 9.24167 17.7417 8.91667L14.75 5.91667C14.425 5.59167 13.9083 5.59167 13.5833 5.91667ZM4.66667 3.66667H10.5C10.9583 3.66667 11.3333 3.29167 11.3333 2.83333C11.3333 2.375 10.9583 2 10.5 2H4.66667C3.75 2 3 2.75 3 3.66667V15.3333C3 16.25 3.75 17 4.66667 17H10.5C10.9583 17 11.3333 16.625 11.3333 16.1667C11.3333 15.7083 10.9583 15.3333 10.5 15.3333H4.66667V3.66667Z" fill="black"/>
</svg>
