<svg width="161" height="33" viewBox="0 0 161 33" fill="none" xmlns="http://www.w3.org/2000/svg">
<path d="M30.1728 0.0595385C28.6932 0.367712 27.4985 1.54537 27.104 3.07524C26.7532 4.41799 27.2026 5.92584 28.2657 6.9164C29.1206 7.71985 29.6467 7.91796 30.9619 7.92897C31.9263 7.92897 32.1346 7.89595 32.6716 7.64281C34.2718 6.88338 35.2034 5.19943 34.9622 3.49347C34.6992 1.61141 33.1867 0.158594 31.3455 0.0155137C30.9509 -0.0175049 30.4248 0.00450748 30.1728 0.0595385Z" fill="white"/>
<path d="M11.1792 5.29849C10.675 5.51861 10.2256 5.94785 9.94068 6.49816C9.69956 6.9274 9.69956 7.03747 9.66668 12.4745L9.6338 18.0217L11.2668 17.9776C12.856 17.9446 12.9108 17.9336 13.4259 17.6144C13.8205 17.3723 14.0507 17.1191 14.2699 16.6899L14.5767 16.1066V10.0752H17.8976C20.9883 10.0752 21.2514 10.0862 21.8103 10.3063C24.6928 11.4069 25.2298 15.2701 22.7529 17.1081C21.8322 17.8015 21.35 17.8896 18.7196 17.8896H16.4399V19.3974C16.4399 21.1694 16.5714 21.5656 17.3058 22.204C17.8757 22.6993 18.4456 22.8424 19.7498 22.8424H20.7691L21.8213 23.932C22.8515 24.9886 23.0049 25.2527 22.9282 25.814C22.8953 26.0011 21.9747 27.0137 20.1006 28.8958C18.5662 30.4476 17.3167 31.7464 17.3167 31.7904C17.3167 31.8344 18.8402 31.8674 20.7034 31.8674H24.09L25.2956 30.5687C26.9067 28.8517 26.9396 28.8077 27.2355 28.2244C28.2876 26.1442 27.904 23.2716 26.3368 21.5216L25.8764 21.0043L26.534 20.355C27.7177 19.1883 28.4411 17.9776 28.9452 16.3487C29.1754 15.6333 29.2083 15.3031 29.1973 13.9273C29.1864 12.4965 29.1535 12.2324 28.8904 11.4069C27.926 8.44626 25.7778 6.31106 22.8844 5.43056C22.1172 5.19943 21.887 5.18843 16.8235 5.15541C12.2532 5.12239 11.508 5.1444 11.1792 5.29849Z" fill="white"/>
<path d="M4.5703 27.553C2.06047 30.0734 0 32.1756 0 32.2196C0 32.2747 1.54535 32.3077 3.43046 32.3077H6.84997L9.11868 30.0184C10.5764 28.5546 11.4531 27.597 11.5627 27.3329C11.771 26.8156 11.771 25.814 11.5627 25.3078C11.3874 24.8895 9.5242 22.9524 9.29404 22.9524C9.21732 22.9524 7.09109 25.0216 4.5703 27.553Z" fill="white"/>
<path d="M50.58 27L47.88 23.1H47.72H44.9V27H41.66V13H47.72C48.96 13 50.0333 13.2067 50.94 13.62C51.86 14.0333 52.5667 14.62 53.06 15.38C53.5533 16.14 53.8 17.04 53.8 18.08C53.8 19.12 53.5467 20.02 53.04 20.78C52.5467 21.5267 51.84 22.1 50.92 22.5L54.06 27H50.58ZM50.52 18.08C50.52 17.2933 50.2667 16.6933 49.76 16.28C49.2533 15.8533 48.5133 15.64 47.54 15.64H44.9V20.52H47.54C48.5133 20.52 49.2533 20.3067 49.76 19.88C50.2667 19.4533 50.52 18.8533 50.52 18.08ZM61.267 27.16C60.1337 27.16 59.1137 26.9267 58.207 26.46C57.3137 25.98 56.6137 25.32 56.107 24.48C55.6004 23.64 55.347 22.6867 55.347 21.62C55.347 20.5533 55.6004 19.6 56.107 18.76C56.6137 17.92 57.3137 17.2667 58.207 16.8C59.1137 16.32 60.1337 16.08 61.267 16.08C62.4004 16.08 63.4137 16.32 64.307 16.8C65.2004 17.2667 65.9004 17.92 66.407 18.76C66.9137 19.6 67.167 20.5533 67.167 21.62C67.167 22.6867 66.9137 23.64 66.407 24.48C65.9004 25.32 65.2004 25.98 64.307 26.46C63.4137 26.9267 62.4004 27.16 61.267 27.16ZM61.267 24.6C62.067 24.6 62.7204 24.3333 63.227 23.8C63.747 23.2533 64.007 22.5267 64.007 21.62C64.007 20.7133 63.747 19.9933 63.227 19.46C62.7204 18.9133 62.067 18.64 61.267 18.64C60.467 18.64 59.807 18.9133 59.287 19.46C58.767 19.9933 58.507 20.7133 58.507 21.62C58.507 22.5267 58.767 23.2533 59.287 23.8C59.807 24.3333 60.467 24.6 61.267 24.6ZM74.4525 27.16C73.3058 27.16 72.2725 26.9267 71.3525 26.46C70.4458 25.98 69.7325 25.32 69.2125 24.48C68.7058 23.64 68.4525 22.6867 68.4525 21.62C68.4525 20.5533 68.7058 19.6 69.2125 18.76C69.7325 17.92 70.4458 17.2667 71.3525 16.8C72.2725 16.32 73.3058 16.08 74.4525 16.08C75.5858 16.08 76.5725 16.32 77.4125 16.8C78.2658 17.2667 78.8858 17.94 79.2725 18.82L76.8525 20.12C76.2925 19.1333 75.4858 18.64 74.4325 18.64C73.6192 18.64 72.9458 18.9067 72.4125 19.44C71.8792 19.9733 71.6125 20.7 71.6125 21.62C71.6125 22.54 71.8792 23.2667 72.4125 23.8C72.9458 24.3333 73.6192 24.6 74.4325 24.6C75.4992 24.6 76.3058 24.1067 76.8525 23.12L79.2725 24.44C78.8858 25.2933 78.2658 25.96 77.4125 26.44C76.5725 26.92 75.5858 27.16 74.4525 27.16ZM85.6108 22.78L84.1108 24.26V27H80.9908V12.16H84.1108V20.56L88.6708 16.24H92.3908L87.9108 20.8L92.7908 27H89.0108L85.6108 22.78ZM104.265 21.66C104.265 21.7 104.245 21.98 104.205 22.5H96.0652C96.2118 23.1667 96.5585 23.6933 97.1052 24.08C97.6518 24.4667 98.3318 24.66 99.1452 24.66C99.7052 24.66 100.198 24.58 100.625 24.42C101.065 24.2467 101.472 23.98 101.845 23.62L103.505 25.42C102.492 26.58 101.012 27.16 99.0652 27.16C97.8518 27.16 96.7785 26.9267 95.8452 26.46C94.9118 25.98 94.1918 25.32 93.6852 24.48C93.1785 23.64 92.9252 22.6867 92.9252 21.62C92.9252 20.5667 93.1718 19.62 93.6652 18.78C94.1718 17.9267 94.8585 17.2667 95.7252 16.8C96.6052 16.32 97.5852 16.08 98.6652 16.08C99.7185 16.08 100.672 16.3067 101.525 16.76C102.378 17.2133 103.045 17.8667 103.525 18.72C104.018 19.56 104.265 20.54 104.265 21.66ZM98.6852 18.44C97.9785 18.44 97.3852 18.64 96.9052 19.04C96.4252 19.44 96.1318 19.9867 96.0252 20.68H101.325C101.218 20 100.925 19.46 100.445 19.06C99.9652 18.6467 99.3785 18.44 98.6852 18.44ZM113.282 26.48C112.976 26.7067 112.596 26.88 112.142 27C111.702 27.1067 111.236 27.16 110.742 27.16C109.462 27.16 108.469 26.8333 107.762 26.18C107.069 25.5267 106.722 24.5667 106.722 23.3V18.88H105.062V16.48H106.722V13.86H109.842V16.48H112.522V18.88H109.842V23.26C109.842 23.7133 109.956 24.0667 110.182 24.32C110.422 24.56 110.756 24.68 111.182 24.68C111.676 24.68 112.096 24.5467 112.442 24.28L113.282 26.48ZM128.814 16.08C130.16 16.08 131.227 16.48 132.014 17.28C132.814 18.0667 133.214 19.2533 133.214 20.84V27H130.094V21.32C130.094 20.4667 129.914 19.8333 129.554 19.42C129.207 18.9933 128.707 18.78 128.054 18.78C127.32 18.78 126.74 19.02 126.314 19.5C125.887 19.9667 125.674 20.6667 125.674 21.6V27H122.554V21.32C122.554 19.6267 121.874 18.78 120.514 18.78C119.794 18.78 119.22 19.02 118.794 19.5C118.367 19.9667 118.154 20.6667 118.154 21.6V27H115.034V16.24H118.014V17.48C118.414 17.0267 118.9 16.68 119.474 16.44C120.06 16.2 120.7 16.08 121.394 16.08C122.154 16.08 122.84 16.2333 123.454 16.54C124.067 16.8333 124.56 17.2667 124.934 17.84C125.374 17.28 125.927 16.8467 126.594 16.54C127.274 16.2333 128.014 16.08 128.814 16.08ZM140.35 16.08C142.017 16.08 143.297 16.48 144.19 17.28C145.084 18.0667 145.53 19.26 145.53 20.86V27H142.61V25.66C142.024 26.66 140.93 27.16 139.33 27.16C138.504 27.16 137.784 27.02 137.17 26.74C136.57 26.46 136.11 26.0733 135.79 25.58C135.47 25.0867 135.31 24.5267 135.31 23.9C135.31 22.9 135.684 22.1133 136.43 21.54C137.19 20.9667 138.357 20.68 139.93 20.68H142.41C142.41 20 142.204 19.48 141.79 19.12C141.377 18.7467 140.757 18.56 139.93 18.56C139.357 18.56 138.79 18.6533 138.23 18.84C137.684 19.0133 137.217 19.2533 136.83 19.56L135.71 17.38C136.297 16.9667 136.997 16.6467 137.81 16.42C138.637 16.1933 139.484 16.08 140.35 16.08ZM140.11 25.06C140.644 25.06 141.117 24.94 141.53 24.7C141.944 24.4467 142.237 24.08 142.41 23.6V22.5H140.27C138.99 22.5 138.35 22.92 138.35 23.76C138.35 24.16 138.504 24.48 138.81 24.72C139.13 24.9467 139.564 25.06 140.11 25.06ZM154.894 16.08C156.227 16.08 157.301 16.48 158.114 17.28C158.941 18.08 159.354 19.2667 159.354 20.84V27H156.234V21.32C156.234 20.4667 156.047 19.8333 155.674 19.42C155.301 18.9933 154.761 18.78 154.054 18.78C153.267 18.78 152.641 19.0267 152.174 19.52C151.707 20 151.474 20.72 151.474 21.68V27H148.354V16.24H151.334V17.5C151.747 17.0467 152.261 16.7 152.874 16.46C153.487 16.2067 154.161 16.08 154.894 16.08Z" fill="white"/>
</svg>
