<svg width="168" height="33" viewBox="0 0 168 33" fill="none" xmlns="http://www.w3.org/2000/svg">
<path d="M32.1885 0.0595385C30.6525 0.367712 29.4124 1.54537 29.0028 3.07524C28.6387 4.41799 29.1052 5.92584 30.2088 6.9164C31.0963 7.71985 31.6424 7.91796 33.0077 7.92897C34.0089 7.92897 34.2251 7.89595 34.7826 7.64281C36.4437 6.88338 37.4108 5.19943 37.1605 3.49347C36.8874 1.61141 35.3173 0.158594 33.4059 0.0155137C32.9963 -0.0175049 32.4502 0.00450748 32.1885 0.0595385Z" fill="white"/>
<path d="M12.4713 5.29849C11.9479 5.51861 11.4814 5.94785 11.1856 6.49816C10.9353 6.9274 10.9353 7.03747 10.9012 12.4745L10.867 18.0217L12.5623 17.9776C14.212 17.9446 14.2689 17.9336 14.8037 17.6144C15.2133 17.3723 15.4522 17.1191 15.6797 16.6899L15.9983 16.1066V10.0752H19.4457C22.6542 10.0752 22.9272 10.0862 23.5075 10.3063C26.4998 11.4069 27.0572 15.2701 24.4859 17.1081C23.5302 17.8015 23.0296 17.8896 20.299 17.8896H17.9325V19.3974C17.9325 21.1694 18.069 21.5656 18.8313 22.204C19.4229 22.6993 20.0146 22.8424 21.3685 22.8424H22.4266L23.5188 23.932C24.5883 24.9886 24.7476 25.2527 24.668 25.814C24.6338 26.0011 23.6781 27.0137 21.7326 28.8958C20.1397 30.4476 18.8427 31.7464 18.8427 31.7904C18.8427 31.8344 20.4242 31.8674 22.3583 31.8674H25.874L27.1255 30.5687C28.798 28.8517 28.8321 28.8077 29.1393 28.2244C30.2316 26.1442 29.8334 23.2716 28.2064 21.5216L27.7285 21.0043L28.4112 20.355C29.6399 19.1883 30.3909 17.9776 30.9142 16.3487C31.1532 15.6333 31.1873 15.3031 31.1759 13.9273C31.1645 12.4965 31.1304 12.2324 30.8573 11.4069C29.8561 8.44626 27.6261 6.31106 24.6225 5.43056C23.826 5.19943 23.5871 5.18843 18.3307 5.15541C13.5863 5.12239 12.8126 5.1444 12.4713 5.29849Z" fill="white"/>
<path d="M5.61063 27.553C3.00518 30.0734 0.866211 32.1756 0.866211 32.2196C0.866211 32.2747 2.47044 32.3077 4.42737 32.3077H7.97716L10.3323 30.0184C11.8455 28.5546 12.7557 27.597 12.8695 27.3329C13.0857 26.8156 13.0857 25.814 12.8695 25.3078C12.6874 24.8895 10.7533 22.9524 10.5143 22.9524C10.4347 22.9524 8.22746 25.0216 5.61063 27.553Z" fill="white"/>
<path d="M52.9701 27L50.2701 23.1H50.1101H47.2901V27H44.0501V13H50.1101C51.3501 13 52.4235 13.2067 53.3301 13.62C54.2501 14.0333 54.9568 14.62 55.4501 15.38C55.9435 16.14 56.1901 17.04 56.1901 18.08C56.1901 19.12 55.9368 20.02 55.4301 20.78C54.9368 21.5267 54.2301 22.1 53.3101 22.5L56.4501 27H52.9701ZM52.9101 18.08C52.9101 17.2933 52.6568 16.6933 52.1501 16.28C51.6435 15.8533 50.9035 15.64 49.9301 15.64H47.2901V20.52H49.9301C50.9035 20.52 51.6435 20.3067 52.1501 19.88C52.6568 19.4533 52.9101 18.8533 52.9101 18.08ZM63.6572 27.16C62.5238 27.16 61.5038 26.9267 60.5972 26.46C59.7038 25.98 59.0038 25.32 58.4972 24.48C57.9905 23.64 57.7372 22.6867 57.7372 21.62C57.7372 20.5533 57.9905 19.6 58.4972 18.76C59.0038 17.92 59.7038 17.2667 60.5972 16.8C61.5038 16.32 62.5238 16.08 63.6572 16.08C64.7905 16.08 65.8038 16.32 66.6972 16.8C67.5905 17.2667 68.2905 17.92 68.7972 18.76C69.3038 19.6 69.5572 20.5533 69.5572 21.62C69.5572 22.6867 69.3038 23.64 68.7972 24.48C68.2905 25.32 67.5905 25.98 66.6972 26.46C65.8038 26.9267 64.7905 27.16 63.6572 27.16ZM63.6572 24.6C64.4572 24.6 65.1105 24.3333 65.6172 23.8C66.1372 23.2533 66.3972 22.5267 66.3972 21.62C66.3972 20.7133 66.1372 19.9933 65.6172 19.46C65.1105 18.9133 64.4572 18.64 63.6572 18.64C62.8572 18.64 62.1972 18.9133 61.6772 19.46C61.1572 19.9933 60.8972 20.7133 60.8972 21.62C60.8972 22.5267 61.1572 23.2533 61.6772 23.8C62.1972 24.3333 62.8572 24.6 63.6572 24.6ZM76.8426 27.16C75.696 27.16 74.6626 26.9267 73.7426 26.46C72.836 25.98 72.1226 25.32 71.6026 24.48C71.096 23.64 70.8426 22.6867 70.8426 21.62C70.8426 20.5533 71.096 19.6 71.6026 18.76C72.1226 17.92 72.836 17.2667 73.7426 16.8C74.6626 16.32 75.696 16.08 76.8426 16.08C77.976 16.08 78.9626 16.32 79.8026 16.8C80.656 17.2667 81.276 17.94 81.6626 18.82L79.2426 20.12C78.6826 19.1333 77.876 18.64 76.8226 18.64C76.0093 18.64 75.336 18.9067 74.8026 19.44C74.2693 19.9733 74.0026 20.7 74.0026 21.62C74.0026 22.54 74.2693 23.2667 74.8026 23.8C75.336 24.3333 76.0093 24.6 76.8226 24.6C77.8893 24.6 78.696 24.1067 79.2426 23.12L81.6626 24.44C81.276 25.2933 80.656 25.96 79.8026 26.44C78.9626 26.92 77.976 27.16 76.8426 27.16ZM88.0009 22.78L86.5009 24.26V27H83.3809V12.16H86.5009V20.56L91.0609 16.24H94.7809L90.3009 20.8L95.1809 27H91.4009L88.0009 22.78ZM106.655 21.66C106.655 21.7 106.635 21.98 106.595 22.5H98.4553C98.602 23.1667 98.9486 23.6933 99.4953 24.08C100.042 24.4667 100.722 24.66 101.535 24.66C102.095 24.66 102.589 24.58 103.015 24.42C103.455 24.2467 103.862 23.98 104.235 23.62L105.895 25.42C104.882 26.58 103.402 27.16 101.455 27.16C100.242 27.16 99.1686 26.9267 98.2353 26.46C97.302 25.98 96.582 25.32 96.0753 24.48C95.5686 23.64 95.3153 22.6867 95.3153 21.62C95.3153 20.5667 95.562 19.62 96.0553 18.78C96.562 17.9267 97.2486 17.2667 98.1153 16.8C98.9953 16.32 99.9753 16.08 101.055 16.08C102.109 16.08 103.062 16.3067 103.915 16.76C104.769 17.2133 105.435 17.8667 105.915 18.72C106.409 19.56 106.655 20.54 106.655 21.66ZM101.075 18.44C100.369 18.44 99.7753 18.64 99.2953 19.04C98.8153 19.44 98.522 19.9867 98.4153 20.68H103.715C103.609 20 103.315 19.46 102.835 19.06C102.355 18.6467 101.769 18.44 101.075 18.44ZM115.672 26.48C115.366 26.7067 114.986 26.88 114.532 27C114.092 27.1067 113.626 27.16 113.132 27.16C111.852 27.16 110.859 26.8333 110.152 26.18C109.459 25.5267 109.112 24.5667 109.112 23.3V18.88H107.452V16.48H109.112V13.86H112.232V16.48H114.912V18.88H112.232V23.26C112.232 23.7133 112.346 24.0667 112.572 24.32C112.812 24.56 113.146 24.68 113.572 24.68C114.066 24.68 114.486 24.5467 114.832 24.28L115.672 26.48ZM131.204 16.08C132.551 16.08 133.617 16.48 134.404 17.28C135.204 18.0667 135.604 19.2533 135.604 20.84V27H132.484V21.32C132.484 20.4667 132.304 19.8333 131.944 19.42C131.597 18.9933 131.097 18.78 130.444 18.78C129.711 18.78 129.131 19.02 128.704 19.5C128.277 19.9667 128.064 20.6667 128.064 21.6V27H124.944V21.32C124.944 19.6267 124.264 18.78 122.904 18.78C122.184 18.78 121.611 19.02 121.184 19.5C120.757 19.9667 120.544 20.6667 120.544 21.6V27H117.424V16.24H120.404V17.48C120.804 17.0267 121.291 16.68 121.864 16.44C122.451 16.2 123.091 16.08 123.784 16.08C124.544 16.08 125.231 16.2333 125.844 16.54C126.457 16.8333 126.951 17.2667 127.324 17.84C127.764 17.28 128.317 16.8467 128.984 16.54C129.664 16.2333 130.404 16.08 131.204 16.08ZM142.74 16.08C144.407 16.08 145.687 16.48 146.58 17.28C147.474 18.0667 147.92 19.26 147.92 20.86V27H145V25.66C144.414 26.66 143.32 27.16 141.72 27.16C140.894 27.16 140.174 27.02 139.56 26.74C138.96 26.46 138.5 26.0733 138.18 25.58C137.86 25.0867 137.7 24.5267 137.7 23.9C137.7 22.9 138.074 22.1133 138.82 21.54C139.58 20.9667 140.747 20.68 142.32 20.68H144.8C144.8 20 144.594 19.48 144.18 19.12C143.767 18.7467 143.147 18.56 142.32 18.56C141.747 18.56 141.18 18.6533 140.62 18.84C140.074 19.0133 139.607 19.2533 139.22 19.56L138.1 17.38C138.687 16.9667 139.387 16.6467 140.2 16.42C141.027 16.1933 141.874 16.08 142.74 16.08ZM142.5 25.06C143.034 25.06 143.507 24.94 143.92 24.7C144.334 24.4467 144.627 24.08 144.8 23.6V22.5H142.66C141.38 22.5 140.74 22.92 140.74 23.76C140.74 24.16 140.894 24.48 141.2 24.72C141.52 24.9467 141.954 25.06 142.5 25.06ZM157.284 16.08C158.618 16.08 159.691 16.48 160.504 17.28C161.331 18.08 161.744 19.2667 161.744 20.84V27H158.624V21.32C158.624 20.4667 158.438 19.8333 158.064 19.42C157.691 18.9933 157.151 18.78 156.444 18.78C155.658 18.78 155.031 19.0267 154.564 19.52C154.098 20 153.864 20.72 153.864 21.68V27H150.744V16.24H153.724V17.5C154.138 17.0467 154.651 16.7 155.264 16.46C155.878 16.2067 156.551 16.08 157.284 16.08Z" fill="white"/>
</svg>
